<?xml version="1.0" encoding="UTF-8" standalone="no"?>
<svg
   xmlns:dc="http://purl.org/dc/elements/1.1/"
   xmlns:cc="http://creativecommons.org/ns#"
   xmlns:rdf="http://www.w3.org/1999/02/22-rdf-syntax-ns#"
   xmlns:svg="http://www.w3.org/2000/svg"
   xmlns="http://www.w3.org/2000/svg"
   xmlns:sodipodi="http://sodipodi.sourceforge.net/DTD/sodipodi-0.dtd"
   xmlns:inkscape="http://www.inkscape.org/namespaces/inkscape"
   version="1.1"
   width="32"
   height="32"
   viewBox="0 0 32 32"
   data-tags="expand,enlarge,full screen,maximize"
   id="svg2"
   inkscape:version="0.91 r13725"
   sodipodi:docname="304.svg">
  <metadata
     id="metadata12">
    <rdf:RDF>
      <cc:Work
         rdf:about="">
        <dc:format>image/svg+xml</dc:format>
        <dc:type
           rdf:resource="http://purl.org/dc/dcmitype/StillImage" />
      </cc:Work>
    </rdf:RDF>
  </metadata>
  <defs
     id="defs10" />
  <sodipodi:namedview
     pagecolor="#ffffff"
     bordercolor="#666666"
     borderopacity="1"
     objecttolerance="10"
     gridtolerance="10"
     guidetolerance="10"
     inkscape:pageopacity="0"
     inkscape:pageshadow="2"
     inkscape:window-width="833"
     inkscape:window-height="480"
     id="namedview8"
     showgrid="false"
     inkscape:zoom="7.375"
     inkscape:cx="34.576271"
     inkscape:cy="16"
     inkscape:window-x="10"
     inkscape:window-y="34"
     inkscape:window-maximized="0"
     inkscape:current-layer="svg2" />
  <g
     fill="#444"
     transform="scale(0.03125 0.03125)"
     id="g4"
     style="fill:#ffffff">
    <path
       d="M442.112 191.648l-249.12 1.472 0.096 247.52 82.88-82.912 110.528 110.528 85.28-85.28-110.496-110.528 80.832-80.8zM386.528 555.2l-110.528 110.56-82.88-82.944-0.096 249.568 249.12-0.576-80.832-80.8 110.528-110.496-85.312-85.312zM637.504 468.256l110.496-110.528 82.88 82.912 0.128-247.52-249.12-1.472 80.832 80.8-110.528 110.528 85.312 85.28zM748 665.76l-110.496-110.56-85.312 85.312 110.528 110.496-80.832 80.8 249.12 0.576-0.128-249.568-82.88 82.944z"
       id="path6"
       style="fill:#ffffff" />
  </g>
</svg>
