<?xml version="1.0" encoding="UTF-8"?>
<svg width="36px" height="36px" viewBox="0 0 36 36" version="1.1" xmlns="http://www.w3.org/2000/svg" xmlns:xlink="http://www.w3.org/1999/xlink">
    <!-- Generator: Sketch 42 (36781) - http://www.bohemiancoding.com/sketch -->
    <title>attention</title>
    <desc>Created with Sketch.</desc>
    <defs>
        <linearGradient x1="50%" y1="0%" x2="50%" y2="100%" id="linearGradient-1">
            <stop stop-color="#FBB161" offset="0%"></stop>
            <stop stop-color="#FA9B4C" offset="35.0365048%"></stop>
            <stop stop-color="#F97124" offset="100%"></stop>
        </linearGradient>
    </defs>
    <g id="Page-1" stroke="none" stroke-width="1" fill="none" fill-rule="evenodd">
        <g id="attention">
            <path d="M18,36 C27.941126,36 36,27.941126 36,18 C36,8.05887401 27.941126,0 18,0 C8.05887401,0 0,8.05887401 0,18 C0,27.941126 8.05887401,36 18,36 Z" id="Oval-1" fill="url(#linearGradient-1)"></path>
            <path d="M23.6661571,9.34756505 C22.1534326,7.83371884 20.1415097,7 18.0009071,7 C13.583405,7 10,10.5951696 10,15.0142889 C10,17.8947417 11.4859086,20.492845 13.9509889,21.9187179 L13.9509889,26.7585834 C13.9509889,28.0405034 14.9574851,29.0825541 16.2204409,29.0825541 L19.7968941,29.0825541 C21.0522199,29.0825541 22.0896666,28.0405034 22.0896666,26.7585834 L22.0896666,21.9145833 C24.5417041,20.4882931 26.0193827,17.8917028 26.0193827,15.0142889 C26.0193827,12.8734776 25.1784513,10.8610069 23.6661571,9.34756505 Z M19.7968941,27.347868 L16.2204409,27.347868 C15.9131537,27.347868 15.6726323,27.084587 15.6726323,26.7585834 L15.6726323,25.3653696 L20.3680232,25.3653696 L20.3680232,26.7585834 C20.3680232,27.084587 20.096734,27.347868 19.7968941,27.347868 Z M20.8370015,20.6294679 C20.5442047,20.7751032 20.3680232,21.074017 20.3680232,21.401038 L20.3680232,23.6437132 L18.9072349,23.6437132 L18.9072349,18.1266288 L20.9963448,18.1266288 C21.4722748,18.1266288 21.8580925,17.7417372 21.8580925,17.2658072 C21.8580925,16.7898771 21.4722748,16.4049855 20.9963448,16.4049855 L15.0503104,16.4049855 C14.5743803,16.4049855 14.1885757,16.7898771 14.1885757,17.2658072 C14.1885757,17.7417372 14.5743803,18.1266288 15.0503104,18.1266288 L17.1725488,18.1266288 L17.1725488,23.6437132 L15.6726323,23.6437132 L15.6726323,21.4049117 C15.6726323,21.077669 15.4777996,20.7787161 15.184729,20.6331198 C13.049213,19.5722745 11.7177697,17.4192682 11.7177697,15.0142889 C11.7177697,11.5455167 14.536152,8.72346934 18.00332,8.72346934 C21.4699141,8.72346934 24.2934874,11.5455167 24.2934874,15.0142889 C24.2935005,17.4164118 22.9710958,19.5680356 20.8370015,20.6294679 Z" id="Shape" fill="#FFFFFF" fill-rule="nonzero"></path>
        </g>
    </g>
</svg>