<?xml version="1.0" encoding="UTF-8" standalone="no"?>
<svg
   xmlns:dc="http://purl.org/dc/elements/1.1/"
   xmlns:cc="http://creativecommons.org/ns#"
   xmlns:rdf="http://www.w3.org/1999/02/22-rdf-syntax-ns#"
   xmlns:svg="http://www.w3.org/2000/svg"
   xmlns="http://www.w3.org/2000/svg"
   xmlns:sodipodi="http://sodipodi.sourceforge.net/DTD/sodipodi-0.dtd"
   xmlns:inkscape="http://www.inkscape.org/namespaces/inkscape"
   version="1.1"
   width="32"
   height="32"
   viewBox="0 0 32 32"
   data-tags="collapse,shrink,minimize"
   id="svg2"
   inkscape:version="0.91 r13725"
   sodipodi:docname="305.svg">
  <metadata
     id="metadata12">
    <rdf:RDF>
      <cc:Work
         rdf:about="">
        <dc:format>image/svg+xml</dc:format>
        <dc:type
           rdf:resource="http://purl.org/dc/dcmitype/StillImage" />
        <dc:title></dc:title>
      </cc:Work>
    </rdf:RDF>
  </metadata>
  <defs
     id="defs10" />
  <sodipodi:namedview
     pagecolor="#ffffff"
     bordercolor="#666666"
     borderopacity="1"
     objecttolerance="10"
     gridtolerance="10"
     guidetolerance="10"
     inkscape:pageopacity="0"
     inkscape:pageshadow="2"
     inkscape:window-width="2560"
     inkscape:window-height="1056"
     id="namedview8"
     showgrid="false"
     inkscape:zoom="7.375"
     inkscape:cx="16"
     inkscape:cy="16"
     inkscape:window-x="0"
     inkscape:window-y="24"
     inkscape:window-maximized="1"
     inkscape:current-layer="svg2" />
  <g
     fill="#444"
     transform="scale(0.03125 0.03125)"
     id="g4">
    <path
       d="M367.776 280.224l-110.528-110.496-85.28 85.28 110.528 110.496-82.88 82.88 249.504 0.128-0.544-249.088-80.8 80.8zM741.504 365.504l110.528-110.496-85.28-85.28-110.528 110.496-80.8-80.8-0.544 249.088 249.504-0.128-82.88-82.88zM282.496 658.496l-110.528 110.496 85.28 85.28 110.528-110.496 80.832 80.8 0.544-249.088-249.504 0.128 82.848 82.88zM824.384 575.616l-249.504-0.128 0.544 249.088 80.8-80.8 110.528 110.496 85.28-85.28-110.528-110.496 82.88-82.88z"
       id="path6"
       style="fill:#ffffff" />
  </g>
</svg>
