<?xml version="1.0" encoding="UTF-8"?>
<svg width="92px" height="92px" viewBox="0 0 92 92" version="1.1" xmlns="http://www.w3.org/2000/svg" xmlns:xlink="http://www.w3.org/1999/xlink">
    <!-- Generator: Sketch 42 (36781) - http://www.bohemiancoding.com/sketch -->
    <title>attention_big</title>
    <desc>Created with Sketch.</desc>
    <defs>
        <linearGradient x1="50%" y1="0%" x2="50%" y2="100%" id="linearGradient-1">
            <stop stop-color="#FBB161" offset="0%"></stop>
            <stop stop-color="#FA9B4C" offset="35.0365048%"></stop>
            <stop stop-color="#F97124" offset="100%"></stop>
        </linearGradient>
        <path d="M21.8210449,43.6420898 C33.8724759,43.6420898 43.6420898,33.8724759 43.6420898,21.8210449 C43.6420898,9.76961399 33.8724759,0 21.8210449,0 C9.76961399,0 0,9.76961399 0,21.8210449 C0,33.8724759 9.76961399,43.6420898 21.8210449,43.6420898 Z" id="path-2"></path>
        <filter x="-50%" y="-50%" width="200%" height="200%" filterUnits="objectBoundingBox" id="filter-3">
            <feOffset dx="0" dy="0" in="SourceAlpha" result="shadowOffsetOuter1"></feOffset>
            <feGaussianBlur stdDeviation="12.5" in="shadowOffsetOuter1" result="shadowBlurOuter1"></feGaussianBlur>
            <feColorMatrix values="0 0 0 0 0.639668367   0 0 0 0 0.397729263   0 0 0 0 0  0 0 0 1 0" type="matrix" in="shadowBlurOuter1" result="shadowMatrixOuter1"></feColorMatrix>
            <feOffset dx="0" dy="2" in="SourceAlpha" result="shadowOffsetOuter2"></feOffset>
            <feGaussianBlur stdDeviation="2" in="shadowOffsetOuter2" result="shadowBlurOuter2"></feGaussianBlur>
            <feColorMatrix values="0 0 0 0 0   0 0 0 0 0   0 0 0 0 0  0 0 0 0.15 0" type="matrix" in="shadowBlurOuter2" result="shadowMatrixOuter2"></feColorMatrix>
            <feMerge>
                <feMergeNode in="shadowMatrixOuter1"></feMergeNode>
                <feMergeNode in="shadowMatrixOuter2"></feMergeNode>
            </feMerge>
        </filter>
        <filter x="-50%" y="-50%" width="200%" height="200%" filterUnits="objectBoundingBox" id="filter-4">
            <feGaussianBlur stdDeviation="1" in="SourceAlpha" result="shadowBlurInner1"></feGaussianBlur>
            <feOffset dx="0" dy="1" in="shadowBlurInner1" result="shadowOffsetInner1"></feOffset>
            <feComposite in="shadowOffsetInner1" in2="SourceAlpha" operator="arithmetic" k2="-1" k3="1" result="shadowInnerInner1"></feComposite>
            <feColorMatrix values="0 0 0 0 0.11372549   0 0 0 0 0.164705882   0 0 0 0 0.211764706  0 0 0 0.25 0" type="matrix" in="shadowInnerInner1"></feColorMatrix>
        </filter>
    </defs>
    <g id="Page-1" stroke="none" stroke-width="1" fill="none" fill-rule="evenodd">
        <g id="attention_big" transform="translate(24.000000, 24.000000)">
            <g id="Oval-1">
                <use fill="black" fill-opacity="1" filter="url(#filter-3)" xlink:href="#path-2"></use>
                <use fill="url(#linearGradient-1)" fill-rule="evenodd" xlink:href="#path-2"></use>
                <use fill="black" fill-opacity="1" filter="url(#filter-4)" xlink:href="#path-2"></use>
            </g>
            <path d="M28.4104342,11.9497669 C26.6591464,10.1971805 24.3299345,9.23198054 21.8517495,9.23198054 C16.737588,9.23198054 12.5890644,13.3941241 12.5890644,18.5101579 C12.5890644,21.8448707 14.3093073,24.8527062 17.1631415,26.5034455 L17.1631415,32.1065789 C17.1631415,33.5906633 18.3283665,34.79705 19.790496,34.79705 L23.9309715,34.79705 C25.3842677,34.79705 26.5853242,33.5906633 26.5853242,32.1065789 L26.5853242,26.4986589 C29.4240588,24.8474364 31.1347738,21.8413525 31.1347738,18.5101579 C31.1347738,16.0317312 30.1612238,13.7018852 28.4104342,11.9497669 Z M23.9309715,32.7887963 L19.790496,32.7887963 C19.4347482,32.7887963 19.1562955,32.4839947 19.1562955,32.1065789 L19.1562955,30.4936492 L24.5921702,30.4936492 L24.5921702,32.1065789 C24.5921702,32.4839947 24.2780974,32.7887963 23.9309715,32.7887963 Z M25.1351084,25.0108751 C24.7961363,25.1794778 24.5921702,25.5255316 24.5921702,25.9041252 L24.5921702,28.5004801 L22.9010092,28.5004801 L22.9010092,22.1133274 L25.3195808,22.1133274 C25.8705671,22.1133274 26.3172299,21.6677367 26.3172299,21.1167504 C26.3172299,20.5657641 25.8705671,20.1201734 25.3195808,20.1201734 L18.4358307,20.1201734 C17.8848445,20.1201734 17.4381968,20.5657641 17.4381968,21.1167504 C17.4381968,21.6677367 17.8848445,22.1133274 18.4358307,22.1133274 L20.8927555,22.1133274 L20.8927555,28.5004801 L19.1562955,28.5004801 L19.1562955,25.9086098 C19.1562955,25.5297595 18.9307369,25.1836604 18.5914478,25.015103 C16.1191516,23.7869577 14.5777338,21.2944129 14.5777338,18.5101579 C14.5777338,14.4943451 17.8405874,11.2272485 21.8545429,11.2272485 C25.8678341,11.2272485 29.1366973,14.4943451 29.1366973,18.5101579 C29.1367124,21.2911061 27.6057587,23.7820503 25.1351084,25.0108751 Z" id="Shape" fill="#FFFFFF" fill-rule="nonzero"></path>
        </g>
    </g>
</svg>