<?xml version="1.0" encoding="UTF-8"?>
<svg width="36px" height="36px" viewBox="0 0 36 36" version="1.1" xmlns="http://www.w3.org/2000/svg" xmlns:xlink="http://www.w3.org/1999/xlink">
    <!-- Generator: Sketch 42 (36781) - http://www.bohemiancoding.com/sketch -->
    <title>repeat</title>
    <desc>Created with Sketch.</desc>
    <defs>
        <linearGradient x1="12.6922607%" y1="-63.9160156%" x2="73.5677083%" y2="107.051595%" id="linearGradient-1">
            <stop stop-color="#06DFFE" offset="0%"></stop>
            <stop stop-color="#3A8DF9" offset="60.225623%"></stop>
            <stop stop-color="#5C56F5" offset="100%"></stop>
        </linearGradient>
    </defs>
    <g id="Page-1" stroke="none" stroke-width="1" fill="none" fill-rule="evenodd">
        <g id="repeat">
            <path d="M18,36 C27.941126,36 36,27.941126 36,18 C36,8.05887401 27.941126,0 18,0 C8.05887401,0 0,8.05887401 0,18 C0,27.941126 8.05887401,36 18,36 Z" id="Oval-1-Copy" fill="url(#linearGradient-1)"></path>
            <path d="M18,11.6 L18,7 L12.375,12.75 L18,18.5 L18,13.9 C21.7125,13.9 24.75,17.005 24.75,20.8 C24.75,24.595 21.7125,27.7 18,27.7 C14.2875,27.7 11.25,24.595 11.25,20.8 L9,20.8 C9,25.86 13.05,30 18,30 C22.95,30 27,25.86 27,20.8 C27,15.74 22.95,11.6 18,11.6 Z" id="Shape" fill="#FFFFFF" fill-rule="nonzero"></path>
        </g>
    </g>
</svg>